<svg xmlns="http://www.w3.org/2000/svg" width="1024" height="1024" viewBox="0 0 1024 1024">
  <!-- Generated by tools/make_icon.swift: polished gold on Swedish blue enamel. -->
  <defs>
    <linearGradient id="enamel" gradientUnits="userSpaceOnUse" x1="175" y1="100" x2="805" y2="940">
      <stop offset="0.0" stop-color="#278dc5" stop-opacity="1.0"/>
      <stop offset="0.43" stop-color="#005293" stop-opacity="1.0"/>
      <stop offset="1.0" stop-color="#062d55" stop-opacity="1.0"/>
    </linearGradient>
    <linearGradient id="gold" gradientUnits="userSpaceOnUse" x1="320" y1="175" x2="680" y2="865">
      <stop offset="0.0" stop-color="#fff3b5" stop-opacity="1.0"/>
      <stop offset="0.23" stop-color="#ffd456" stop-opacity="1.0"/>
      <stop offset="0.43" stop-color="#dca024" stop-opacity="1.0"/>
      <stop offset="0.53" stop-color="#ffed96" stop-opacity="1.0"/>
      <stop offset="0.69" stop-color="#f4c444" stop-opacity="1.0"/>
      <stop offset="1.0" stop-color="#b9781c" stop-opacity="1.0"/>
    </linearGradient>
    <radialGradient id="glow" gradientUnits="userSpaceOnUse" cx="340" cy="210" r="640">
      <stop offset="0.0" stop-color="#a8deff" stop-opacity="0.4"/>
      <stop offset="1.0" stop-color="#a8deff" stop-opacity="0.0"/>
    </radialGradient>
    <radialGradient id="glint" gradientUnits="userSpaceOnUse" cx="488" cy="245" r="30">
      <stop offset="0.0" stop-color="#fffdeb" stop-opacity="0.95"/>
      <stop offset="1.0" stop-color="#fffdeb" stop-opacity="0.0"/>
    </radialGradient>
    <path id="cross" d="M488.0 160.0 L536.0 160.0 Q548.0 160.0 548.0 172.0 L548.0 236.0 L615.0 236.0 Q627.0 236.0 627.0 248.0 L627.0 280.0 Q627.0 292.0 615.0 292.0 L548.0 292.0 L548.0 348.0 L710.0 348.0 Q722.0 348.0 722.0 360.0 L722.0 408.0 Q722.0 420.0 710.0 420.0 L548.0 420.0 L548.0 673.75 L648.0 705.0 L632.0 759.0 L548.0 732.75 L548.0 852.0 Q548.0 864.0 536.0 864.0 L488.0 864.0 Q476.0 864.0 476.0 852.0 L476.0 710.25 L376.0 679.0 L392.0 625.0 L476.0 651.25 L476.0 420.0 L314.0 420.0 Q302.0 420.0 302.0 408.0 L302.0 360.0 Q302.0 348.0 314.0 348.0 L476.0 348.0 L476.0 292.0 L409.0 292.0 Q397.0 292.0 397.0 280.0 L397.0 248.0 Q397.0 236.0 409.0 236.0 L476.0 236.0 L476.0 172.0 Q476.0 160.0 488.0 160.0 Z"/>
    <rect id="tile" x="72" y="72" width="880" height="880" rx="200"/>
    <clipPath id="tileClip"><use href="#tile"/></clipPath>
    <clipPath id="crossClip"><use href="#cross"/></clipPath>
    <filter id="tileShadow" x="-20%" y="-20%" width="140%" height="140%">
      <feDropShadow dx="0" dy="12" stdDeviation="9" flood-color="#001b35" flood-opacity="0.32"/>
    </filter>
    <filter id="crossShadow" x="-30%" y="-20%" width="160%" height="140%">
      <feDropShadow dx="0" dy="14" stdDeviation="8" flood-color="#001b32" flood-opacity="0.55"/>
    </filter>
  </defs>
  <use href="#tile" fill="#005293" filter="url(#tileShadow)"/>
  <g clip-path="url(#tileClip)">
    <use href="#tile" fill="url(#enamel)"/>
    <use href="#tile" fill="url(#glow)"/>
  </g>
  <use href="#tile" fill="none" stroke="#002b50" stroke-opacity="0.7" stroke-width="3"/>
  <rect x="80" y="80" width="864" height="864" rx="192" fill="none" stroke="#b1e4ff" stroke-opacity="0.24" stroke-width="2"/>
  <use href="#cross" fill="#c78a21" filter="url(#crossShadow)"/>
  <use href="#cross" fill="none" stroke="#946019" stroke-width="12" stroke-linejoin="round"/>
  <g clip-path="url(#crossClip)">
    <use href="#cross" fill="url(#gold)"/>
    <path d="M285.0 320.0 L740.0 470.0 L740.0 500.0 L285.0 350.0 Z" fill="#fff9d7" fill-opacity="0.18"/>
    <use href="#cross" fill="url(#glint)"/>
  </g>
  <use href="#cross" fill="none" stroke="#fff0aa" stroke-opacity="0.8" stroke-width="3" stroke-linejoin="round"/>
  <path d="M321 358H462 M486 179V224" fill="none" stroke="#fffde8" stroke-opacity="0.64" stroke-width="3" stroke-linecap="round"/>
</svg>
